<svg xmlns="http://www.w3.org/2000/svg" xmlns:xlink="http://www.w3.org/1999/xlink" id="Layer_1" x="0px" y="0px" viewBox="0 0 201.0349 35.7885" style="enable-background:new 0 0 201.0349 35.7885;" xml:space="preserve"><style type="text/css">	.st0{fill:#F7A70A;}	.st1{fill:#323E48;}</style><polygon class="st0" points="193.3882,7.4903 187.3242,13.4163 182.2092,12.2243 "></polygon><polygon class="st1" points="193.3882,7.4903 193.3882,7.4903 187.3242,13.4163 188.3982,18.5573 "></polygon><g>	<path class="st1" d="M196.0379,6.8374c1.214,1.623,1.887,3.61,1.886,5.642c0,2.034-0.672,4.021-1.885,5.642l1.587,1.587   c1.625-2.049,2.525-4.6,2.525-7.228c0-2.63-0.9-5.18-2.525-7.231L196.0379,6.8374z"></path>	<path class="st1" d="M182.8589,4.9422c1.621-1.214,3.608-1.886,5.642-1.886s4.021,0.672,5.642,1.886l1.587-1.588   c-2.05-1.625-4.6-2.525-7.229-2.525s-5.179,0.9-7.23,2.525L182.8589,4.9422z"></path>	<path class="st1" d="M180.9633,18.1216c-1.213-1.621-1.886-3.608-1.886-5.642s0.672-4.021,1.886-5.642l-1.587-1.588   c-1.626,2.05-2.526,4.601-2.526,7.23s0.901,5.179,2.526,7.229L180.9633,18.1216z"></path>	<path class="st1" d="M194.1431,20.017c-1.622,1.214-3.609,1.886-5.643,1.886c-2.032,0-4.02-0.672-5.642-1.886l-1.587,1.587   c2.05,1.626,4.601,2.526,7.229,2.526c2.63,0,5.18-0.9,7.23-2.526L194.1431,20.017z"></path>	<path class="st1" d="M74.0723,18.9236c-0.715,0.285-1.337,0.673-1.849,1.156l-0.271,0.254c-0.06,0.056-0.118,0.128-0.172,0.214   l-0.722,1.135v-3.019h-2.447v15.396h2.627v-7.833c0-1.009,0.126-1.81,0.387-2.45c0.259-0.635,0.617-1.172,1.064-1.593   c0.441-0.416,0.984-0.755,1.612-1.009c0.631-0.255,1.339-0.383,2.103-0.383l0.213,0.002l0.006-0.093   c0.05-0.706,0.156-1.405,0.313-2.08l0.028-0.117c0,0-0.474-0.01-0.524-0.01C75.5853,18.4936,74.7883,18.6386,74.0723,18.9236"></path>	<path class="st1" d="M21.2398,10.7819c-0.977-0.566-2.037-1.018-3.151-1.341c-1.204-0.349-2.508-0.526-3.876-0.526   c-1.926,0-3.737,0.338-5.381,1.003c-1.647,0.668-3.091,1.586-4.293,2.731c-1.202,1.143-2.156,2.507-2.837,4.055   c-0.681,1.543-1.026,3.222-1.026,4.987s0.345,3.443,1.025,4.987c0.682,1.547,1.636,2.911,2.838,4.054   c1.202,1.146,2.647,2.064,4.293,2.731c1.644,0.666,3.455,1.003,5.381,1.003c1.368,0,2.672-0.176,3.876-0.525   c1.116-0.324,2.176-0.776,3.176-1.356l0.024-0.015v-2.681l-0.153,0.102c-0.806,0.543-1.688,0.988-2.626,1.327   c-1.256,0.452-2.641,0.683-4.117,0.683c-1.528,0-2.961-0.267-4.257-0.791c-1.298-0.524-2.444-1.257-3.409-2.179   c-0.967-0.922-1.734-2.024-2.279-3.273c-0.545-1.251-0.822-2.62-0.822-4.067c0-1.447,0.276-2.816,0.822-4.067   c0.545-1.248,1.312-2.35,2.279-3.275c0.965-0.921,2.112-1.654,3.409-2.178s2.73-0.791,4.257-0.791c1.474,0,2.859,0.231,4.117,0.684   c0.938,0.338,1.82,0.784,2.626,1.326l0.153,0.103v-2.654l-0.024-0.043L21.2398,10.7819z"></path></g><rect x="24.4537" y="8.5088" class="st1" width="2.627" height="25.552"></rect><g>	<path class="st1" d="M43.663,20.5913c-0.691-0.715-1.53-1.289-2.495-1.706c-0.964-0.416-2.017-0.627-3.13-0.627   c-1.136,0-2.194,0.21-3.145,0.627c-0.954,0.417-1.802,0.993-2.518,1.711c-0.714,0.716-1.277,1.578-1.673,2.562   c-0.399,0.985-0.601,2.075-0.601,3.238c0,1.115,0.213,2.173,0.633,3.144c0.42,0.976,1.013,1.838,1.762,2.565   c0.75,0.73,1.645,1.312,2.659,1.73c1.011,0.419,2.127,0.631,3.315,0.631c1.551,0,2.966-0.354,4.206-1.05   c1.079-0.607,1.979-1.402,2.673-2.362l0.065-0.09l-2.14-1.199l-0.051,0.073c-0.444,0.642-1.036,1.176-1.759,1.586   c-0.869,0.495-1.877,0.745-2.994,0.745c-0.734,0-1.424-0.11-2.049-0.326s-1.196-0.528-1.696-0.927   c-0.504-0.401-0.922-0.889-1.243-1.448c-0.323-0.558-0.538-1.173-0.641-1.827l-0.071-0.452h13.101l0.016-0.241   c0.011-0.195,0.017-0.391,0.017-0.586c0-1.139-0.202-2.218-0.599-3.204C44.906,22.1713,44.354,21.3083,43.663,20.5913    M32.785,25.2643l0.054-0.44c0.077-0.631,0.261-1.224,0.545-1.761c0.287-0.54,0.671-1.008,1.141-1.389   c0.465-0.377,1.004-0.678,1.604-0.894c0.603-0.218,1.259-0.328,1.946-0.328c1.384,0,2.553,0.415,3.474,1.234   c0.921,0.82,1.453,1.878,1.582,3.147l0.045,0.431H32.785z"></path>	<path class="st1" d="M62.5705,20.8169l-0.656-0.597c-0.679-0.619-1.471-1.105-2.354-1.447c-0.885-0.342-1.852-0.516-2.875-0.516   c-1.163,0-2.259,0.212-3.26,0.63c-1.001,0.42-1.883,1-2.621,1.728c-0.738,0.727-1.325,1.596-1.746,2.584   c-0.42,0.983-0.633,2.047-0.633,3.163s0.213,2.18,0.633,3.164c0.421,0.986,1.008,1.855,1.746,2.583s1.621,1.31,2.621,1.728   c1.001,0.418,2.097,0.629,3.26,0.629c1.024,0,1.991-0.174,2.875-0.515c0.884-0.342,1.676-0.829,2.354-1.448l0.656-0.598v2.155h2.52   v-15.396h-2.52V20.8169z M62.4505,28.6459c-0.294,0.699-0.709,1.317-1.234,1.837c-0.525,0.519-1.155,0.929-1.871,1.218   c-0.714,0.289-1.489,0.434-2.301,0.434c-0.813,0-1.587-0.145-2.301-0.434c-0.716-0.289-1.345-0.699-1.869-1.218   c-0.526-0.52-0.942-1.138-1.235-1.837c-0.294-0.698-0.444-1.468-0.444-2.284s0.15-1.585,0.444-2.285   c0.293-0.697,0.709-1.315,1.235-1.835c0.525-0.52,1.153-0.93,1.869-1.219c0.713-0.289,1.487-0.435,2.301-0.435   c0.813,0,1.588,0.146,2.301,0.435c0.715,0.289,1.345,0.699,1.871,1.219c0.525,0.52,0.94,1.138,1.234,1.836   c0.294,0.7,0.443,1.469,0.443,2.284C62.8935,27.1779,62.7445,27.9469,62.4505,28.6459"></path>	<path class="st1" d="M99.2053,10.7819c-0.977-0.566-2.037-1.017-3.151-1.341c-1.205-0.349-2.509-0.526-3.876-0.526   c-1.926,0-3.737,0.338-5.382,1.003c-1.646,0.668-3.091,1.586-4.292,2.731c-1.202,1.143-2.156,2.507-2.838,4.055   c-0.681,1.543-1.026,3.222-1.026,4.987s0.345,3.443,1.026,4.987c0.681,1.547,1.636,2.911,2.838,4.054   c1.201,1.146,2.646,2.064,4.292,2.731c1.645,0.666,3.456,1.003,5.382,1.003c1.367,0,2.671-0.176,3.876-0.525   c1.114-0.323,2.174-0.775,3.175-1.356l0.025-0.015v-2.681l-0.153,0.102c-0.806,0.543-1.688,0.988-2.626,1.327   c-1.257,0.452-2.642,0.683-4.118,0.683c-1.528,0-2.96-0.267-4.257-0.791c-1.297-0.524-2.444-1.257-3.409-2.179   c-0.967-0.923-1.734-2.024-2.278-3.273c-0.546-1.251-0.823-2.62-0.823-4.067c0-1.447,0.277-2.816,0.823-4.067   c0.544-1.249,1.311-2.35,2.278-3.275c0.965-0.921,2.113-1.654,3.409-2.178c1.297-0.524,2.73-0.791,4.257-0.791   c1.474,0,2.859,0.231,4.118,0.684c0.937,0.338,1.82,0.784,2.626,1.326l0.153,0.103v-2.654l-0.025-0.043L99.2053,10.7819z"></path>	<path class="st1" d="M115.6263,20.6194c-0.762-0.728-1.68-1.31-2.729-1.73c-1.051-0.419-2.197-0.632-3.409-0.632   s-2.359,0.213-3.408,0.632c-1.051,0.421-1.976,1.003-2.749,1.733c-0.772,0.728-1.382,1.596-1.813,2.579   c-0.43,0.984-0.65,2.047-0.65,3.161c0,1.113,0.22,2.177,0.65,3.16c0.431,0.985,1.041,1.853,1.813,2.579   c0.773,0.73,1.698,1.312,2.749,1.733c1.048,0.419,2.195,0.632,3.408,0.632s2.36-0.213,3.409-0.632   c1.049-0.42,1.967-1.002,2.729-1.73c0.761-0.728,1.372-1.598,1.816-2.585c0.441-0.983,0.665-2.045,0.665-3.157   s-0.224-2.174-0.665-3.157C116.9983,22.2174,116.3863,21.3474,115.6263,20.6194 M114.8953,28.6614   c-0.295,0.711-0.71,1.334-1.236,1.855c-0.525,0.519-1.154,0.93-1.871,1.219c-0.713,0.288-1.487,0.435-2.3,0.435   s-1.587-0.147-2.301-0.435c-0.716-0.289-1.345-0.7-1.869-1.219c-0.527-0.521-0.943-1.144-1.236-1.855   c-0.294-0.709-0.443-1.483-0.443-2.299s0.149-1.59,0.443-2.299c0.293-0.711,0.708-1.335,1.236-1.855   c0.524-0.52,1.153-0.93,1.869-1.219c0.713-0.289,1.488-0.435,2.301-0.435s1.587,0.146,2.301,0.435   c0.715,0.288,1.345,0.699,1.87,1.219c0.526,0.519,0.941,1.144,1.236,1.855c0.293,0.712,0.442,1.485,0.442,2.299   C115.3373,27.1754,115.1883,27.9494,114.8953,28.6614"></path>	<path class="st1" d="M131.2537,27.9529c0,0.824-0.092,1.453-0.28,1.924c-0.188,0.468-0.45,0.862-0.777,1.171   c-0.371,0.349-0.818,0.627-1.329,0.825c-0.509,0.197-1.069,0.297-1.668,0.297c-1.175,0-2.171-0.378-2.961-1.122   c-0.33-0.311-0.592-0.712-0.779-1.192s-0.278-1.103-0.278-1.903v-9.289h-2.627v9.425c0,1.093,0.153,2.003,0.454,2.706   c0.302,0.706,0.714,1.319,1.224,1.82c0.58,0.568,1.302,1.024,2.147,1.353c0.849,0.331,1.798,0.498,2.82,0.498   c1.022,0,1.963-0.167,2.8-0.497c0.835-0.33,1.566-0.787,2.173-1.36c0.533-0.502,0.955-1.112,1.254-1.815   c0.301-0.702,0.454-1.612,0.454-2.705v-9.425h-2.627L131.2537,27.9529L131.2537,27.9529z"></path>	<path class="st1" d="M154.2611,25.5092l-2.577-0.978c-0.781-0.279-1.283-0.592-1.537-0.958c-0.248-0.358-0.375-0.753-0.375-1.172   c0-0.583,0.234-1.09,0.676-1.466c0.431-0.366,0.962-0.551,1.583-0.551c0.564,0,1.066,0.163,1.492,0.486   c0.29,0.219,0.519,0.486,0.698,0.831l0.019,0.038l2.339-0.795l-0.048-0.099c-0.331-0.686-0.83-1.249-1.526-1.725   c-0.839-0.572-1.84-0.863-2.974-0.863c-0.692,0-1.341,0.112-1.928,0.331c-0.586,0.219-1.107,0.525-1.548,0.909   c-0.437,0.381-0.786,0.835-1.036,1.35c-0.248,0.506-0.374,1.052-0.374,1.621c0,0.957,0.272,1.763,0.831,2.465   c0.563,0.708,1.395,1.271,2.472,1.671l2.647,1.013c1.551,0.554,1.877,1.556,1.877,2.299c0,0.707-0.284,1.298-0.843,1.758   c-0.536,0.441-1.206,0.664-1.991,0.664c-0.772,0-1.455-0.199-2.033-0.592c-0.46-0.312-0.804-0.707-1.04-1.208l-0.016-0.035   l-2.43,0.493l0.035,0.105c0.122,0.37,0.3,0.721,0.527,1.043c0.332,0.469,0.747,0.882,1.235,1.227   c0.49,0.346,1.056,0.617,1.682,0.807c0.629,0.191,1.316,0.288,2.04,0.288c0.764,0,1.492-0.123,2.165-0.366   c0.67-0.242,1.257-0.576,1.745-0.995c0.483-0.413,0.867-0.907,1.142-1.466c0.27-0.553,0.408-1.156,0.408-1.791   c0-1.104-0.324-1.99-0.99-2.713C155.9211,26.3942,155.1321,25.8472,154.2611,25.5092"></path>	<path class="st1" d="M174.4599,23.1583c-0.398-0.985-0.95-1.849-1.642-2.567c-0.691-0.714-1.53-1.289-2.495-1.706   c-0.964-0.416-2.017-0.627-3.13-0.627c-1.136,0-2.194,0.21-3.145,0.627c-0.956,0.419-1.803,0.994-2.518,1.711   c-0.713,0.715-1.277,1.577-1.673,2.562c-0.399,0.984-0.6,2.075-0.6,3.238c0,1.113,0.212,2.172,0.632,3.145   c0.42,0.975,1.013,1.838,1.762,2.564c0.751,0.73,1.646,1.313,2.66,1.73c1.01,0.419,2.125,0.631,3.314,0.631   c1.551,0,2.965-0.354,4.205-1.05c1.079-0.606,1.98-1.401,2.674-2.362l0.064-0.09l-2.139-1.199l-0.05,0.073   c-0.444,0.641-1.037,1.175-1.76,1.586c-0.87,0.495-1.877,0.746-2.994,0.746c-0.734,0-1.425-0.111-2.05-0.327   c-0.624-0.216-1.195-0.528-1.695-0.927c-0.504-0.401-0.922-0.889-1.244-1.448s-0.538-1.173-0.64-1.827l-0.071-0.452h13.1   l0.017-0.241c0.011-0.194,0.017-0.391,0.017-0.586C175.0589,25.2233,174.8579,24.1443,174.4599,23.1583 M161.9399,25.2643   l0.054-0.44c0.077-0.631,0.261-1.223,0.546-1.761c0.287-0.54,0.67-1.007,1.14-1.389c0.465-0.377,1.004-0.677,1.604-0.894   c0.603-0.218,1.259-0.328,1.946-0.328c1.385,0,2.554,0.415,3.474,1.234c0.921,0.82,1.453,1.878,1.583,3.147l0.043,0.431H161.9399z"></path>	<path class="st1" d="M142.7202,18.9236c-0.715,0.285-1.337,0.673-1.849,1.156l-0.271,0.254c-0.06,0.056-0.118,0.128-0.172,0.214   l-0.722,1.135v-3.019h-2.447v15.396h2.627v-7.833c0-1.009,0.126-1.81,0.387-2.45c0.259-0.635,0.617-1.172,1.064-1.593   c0.441-0.416,0.984-0.755,1.612-1.009c0.631-0.255,1.339-0.383,2.103-0.383l0.213,0.002l0.006-0.093   c0.05-0.706,0.156-1.405,0.313-2.08l0.028-0.117c0,0-0.474-0.01-0.524-0.01C144.2332,18.4936,143.4362,18.6386,142.7202,18.9236"></path></g></svg>