<svg id="Layer_1" data-name="Layer 1" xmlns="http://www.w3.org/2000/svg" viewBox="0 0 92.07 73.8"><defs><style>.cls-1{fill:#fff;}.cls-2{fill:#3db5e6;}</style></defs><title>Artboard 1</title><path class="cls-1" d="M61.37,32.85c-13.11-3.72-26.68-7.56-26.68-20.62a.18.18,0,0,0-.35,0c-1.25,9.26,1.31,16,7.82,20.64,5.72,4.06,13.66,6,21.34,7.89,8.23,2,16,3.91,20.3,8.2a.17.17,0,0,0,.12.05H84a.18.18,0,0,0,.11-.17c0-9.51-11-12.64-22.73-16"/><path class="cls-2" d="M77.08,48.68C75.43,47,70,45.78,63,44.21c-14.91-3.4-35.33-8.05-35.33-20.63a.19.19,0,0,0-.18-.18.18.18,0,0,0-.18.16C26.51,32,30.48,38,39.46,41.81c7.61,3.25,17.52,4.35,25.48,5.24,5,.56,9.38,1.05,12,1.93H77a.19.19,0,0,0,.15-.08.2.2,0,0,0,0-.23"/><path class="cls-1" d="M42.65,47.34C31.59,45.43,26,42,22,34.55a.18.18,0,0,0-.2-.08.18.18,0,0,0-.14.17c0,3.78,1.13,6.79,3.35,9,3.78,3.69,9.92,4.17,14.11,4.17.87,0,1.65,0,2.31,0l1.21,0a.18.18,0,0,0,.18-.16.2.2,0,0,0-.15-.2"/><path class="cls-1" d="M16.35,53.3a5.88,5.88,0,0,0-2.18-1.69A6.24,6.24,0,0,0,11.58,51a8.37,8.37,0,0,0-1.31.11,3.33,3.33,0,0,0-1.19.44,2.93,2.93,0,0,0-.89.83,2.19,2.19,0,0,0-.36,1.3,2.1,2.1,0,0,0,.29,1.14A2.43,2.43,0,0,0,9,55.6a7.16,7.16,0,0,0,1.3.63c.51.19,1.08.38,1.71.58.9.31,1.85.64,2.83,1a10.55,10.55,0,0,1,2.69,1.45,7.66,7.66,0,0,1,2,2.26,6.45,6.45,0,0,1,.79,3.34,8.77,8.77,0,0,1-.85,4,8,8,0,0,1-2.29,2.78,9.83,9.83,0,0,1-3.29,1.62A13.61,13.61,0,0,1,10,73.8a15.72,15.72,0,0,1-5.56-1A11.75,11.75,0,0,1,0,69.94l4.24-4.31a7.71,7.71,0,0,0,2.59,2,7,7,0,0,0,3.2.82,6.53,6.53,0,0,0,1.4-.15,3.64,3.64,0,0,0,1.19-.49,2.46,2.46,0,0,0,.81-.91,2.92,2.92,0,0,0,.31-1.37,2.15,2.15,0,0,0-.38-1.28,4,4,0,0,0-1.08-1,8.9,8.9,0,0,0-1.74-.79c-.7-.24-1.48-.5-2.37-.78a21.37,21.37,0,0,1-2.51-1,8.27,8.27,0,0,1-2.2-1.46,6.77,6.77,0,0,1-1.55-2.15,7.37,7.37,0,0,1-.59-3.09,7.63,7.63,0,0,1,.91-3.82,7.88,7.88,0,0,1,2.39-2.61A10.07,10.07,0,0,1,8,46.13a14.81,14.81,0,0,1,3.74-.48,14.09,14.09,0,0,1,4.64.83,12.18,12.18,0,0,1,4.14,2.46Z"/><polygon class="cls-1" points="46.03 73.12 39.79 73.12 36.08 61.39 36.01 61.39 32.37 73.12 26.13 73.12 19.62 54.28 26.32 54.28 29.57 66.2 29.69 66.2 33.05 54.28 39.3 54.28 42.78 66.2 42.85 66.2 46.15 54.28 52.58 54.28 46.03 73.12"/><path class="cls-1" d="M64.63,64.91h-.8a20.58,20.58,0,0,0-2.06.1,8.09,8.09,0,0,0-1.85.36,3.33,3.33,0,0,0-1.34.77,1.76,1.76,0,0,0-.53,1.34,1.65,1.65,0,0,0,.24.91,1.84,1.84,0,0,0,.63.61,2.57,2.57,0,0,0,.87.32,5.15,5.15,0,0,0,.94.09,3.83,3.83,0,0,0,2.9-1,3.92,3.92,0,0,0,1-2.82ZM53.24,56.85a10.82,10.82,0,0,1,3.88-2.38,13.25,13.25,0,0,1,4.52-.8,12.11,12.11,0,0,1,4,.59,6,6,0,0,1,2.67,1.82,7.67,7.67,0,0,1,1.49,3.1,18.09,18.09,0,0,1,.48,4.45v9.49H64.63v-2h-.11a4.7,4.7,0,0,1-2.18,1.81,7.7,7.7,0,0,1-3.16.65,9.32,9.32,0,0,1-2.35-.31,7,7,0,0,1-2.21-1A5.16,5.16,0,0,1,53,70.47a5.58,5.58,0,0,1-.65-2.8,4.72,4.72,0,0,1,1.12-3.29,7.38,7.38,0,0,1,2.87-1.93,15.86,15.86,0,0,1,3.92-.91,40.51,40.51,0,0,1,4.2-.22V61a2.32,2.32,0,0,0-1-2.06A4.28,4.28,0,0,0,61,58.29a6,6,0,0,0-2.55.57,8.18,8.18,0,0,0-2.1,1.36Z"/><path class="cls-1" d="M85.83,73.12V62.83a8.15,8.15,0,0,0-.14-1.51,4.32,4.32,0,0,0-.43-1.27,2.22,2.22,0,0,0-.85-.87A2.76,2.76,0,0,0,83,58.86a3.18,3.18,0,0,0-1.46.32,2.88,2.88,0,0,0-1,.89,4,4,0,0,0-.63,1.3,6.08,6.08,0,0,0-.2,1.54V73.12H73.45V54.28h6v2.61h.07a6.7,6.7,0,0,1,.89-1.19,5.31,5.31,0,0,1,1.29-1A8.05,8.05,0,0,1,83.33,54a6.56,6.56,0,0,1,1.85-.26,7,7,0,0,1,3.22.68,6.2,6.2,0,0,1,2.14,1.76,7,7,0,0,1,1.17,2.48,11.2,11.2,0,0,1,.36,2.8V73.12Z"/><path class="cls-1" d="M66.8,20.49c-6.73-2.44-12.06-4.36-12.06-9,0-1.72,1.5-3.47,4.37-3.47s6.54,1.57,8.67,2.5c.7.31,1.26.56,1.62.68a5.92,5.92,0,0,0,4.53-.43.2.2,0,0,0,.1-.2.21.21,0,0,0-.17-.14A7.33,7.33,0,0,1,69,7.79c-.18-.19-.42-.47-.69-.78-1.95-2.28-6-7-11.77-7C44.12,0,44,11,44,11.49c0,10.22,10,13.6,20.63,17.17,11.31,3.82,23,7.76,24.54,20.17a.13.13,0,0,0,0,.06.24.24,0,0,0,.18.13h0a.21.21,0,0,0,.18-.11.11.11,0,0,0,0-.08C91.35,29.37,77.74,24.45,66.8,20.49"/></svg>