<svg xmlns="http://www.w3.org/2000/svg" viewBox="0 0 1280 720" fill="none">
  <rect width="1280" height="720" rx="28" fill="#E8F1EF"/>
  <rect x="44" y="44" width="1192" height="632" rx="24" fill="#F7F6F2" stroke="#C6D9D5"/>
  <rect x="44" y="44" width="1192" height="54" rx="24" fill="#DCE8E4"/>
  <circle cx="84" cy="71" r="10" fill="#E3806B"/>
  <circle cx="116" cy="71" r="10" fill="#E7BE5D"/>
  <circle cx="148" cy="71" r="10" fill="#63BE7B"/>
  <rect x="210" y="58" width="660" height="28" rx="14" fill="#F7F6F2" stroke="#C6D9D5"/>
  <text x="236" y="77" fill="#5A655F" font-size="16" font-family="Arial, sans-serif">Settings</text>

  <rect x="84" y="136" width="240" height="484" rx="18" fill="#EEF3F1"/>
  <text x="116" y="180" fill="#1C6B68" font-size="26" font-weight="700" font-family="Arial, sans-serif">Time &amp; Language</text>
  <text x="116" y="218" fill="#5A655F" font-size="18" font-family="Arial, sans-serif">Apply UK region settings</text>
  <rect x="364" y="136" width="824" height="484" rx="18" fill="#FFFFFF" stroke="#D6DDD9"/>
  <rect x="404" y="182" width="420" height="24" rx="12" fill="#1C6B68" opacity="0.18"/>
  <rect x="404" y="232" width="560" height="16" rx="8" fill="#D6DDD9"/>
  <rect x="404" y="266" width="500" height="16" rx="8" fill="#D6DDD9"/>
  <rect x="404" y="300" width="448" height="16" rx="8" fill="#D6DDD9"/>
  <rect x="404" y="350" width="744" height="204" rx="18" fill="#F5F7F6" stroke="#D6DDD9"/>
  <rect x="438" y="388" width="210" height="20" rx="10" fill="#1C6B68" opacity="0.16"/>
  <rect x="438" y="434" width="674" height="14" rx="7" fill="#D6DDD9"/>
  <rect x="438" y="466" width="618" height="14" rx="7" fill="#D6DDD9"/>
  <rect x="438" y="498" width="544" height="14" rx="7" fill="#D6DDD9"/>
  <rect x="438" y="530" width="460" height="14" rx="7" fill="#D6DDD9"/>
  <rect x="864" y="182" width="248" height="112" rx="18" fill="#E6F4F1"/>
  <text x="892" y="222" fill="#1C6B68" font-size="18" font-weight="700" font-family="Arial, sans-serif">Checklist</text>
  <text x="892" y="252" fill="#5A655F" font-size="16" font-family="Arial, sans-serif">1. Date &amp; time</text>
  <text x="892" y="276" fill="#5A655F" font-size="16" font-family="Arial, sans-serif">2. Timezone: London</text>
  <text x="892" y="300" fill="#5A655F" font-size="16" font-family="Arial, sans-serif">3. Language: English (UK)</text>
  <text x="892" y="324" fill="#5A655F" font-size="16" font-family="Arial, sans-serif">4. Keyboard: UK</text>
</svg>
